<mxfile host="app.diagrams.net" modified="2024-04-22T11:21:26.338Z" agent="Mozilla/5.0 (Windows NT 10.0; Win64; x64) AppleWebKit/537.36 (KHTML, like Gecko) Chrome/123.0.0.0 Safari/537.36" etag="2rAijA3bnVjk4Nnep837" version="24.2.5" type="device">
  <diagram name="Pagina-1" id="xlJhvgW3dntGbL7X99_p">
    <mxGraphModel dx="1877" dy="1726" grid="1" gridSize="10" guides="1" tooltips="1" connect="1" arrows="1" fold="1" page="1" pageScale="1" pageWidth="827" pageHeight="1169" math="0" shadow="0">
      <root>
        <mxCell id="0" />
        <mxCell id="1" parent="0" />
        <mxCell id="esEqVlL6re1M1a8fyDZB-28" style="edgeStyle=orthogonalEdgeStyle;rounded=0;orthogonalLoop=1;jettySize=auto;html=1;entryX=0;entryY=0.5;entryDx=0;entryDy=0;endArrow=none;endFill=0;" parent="1" source="esEqVlL6re1M1a8fyDZB-2" target="esEqVlL6re1M1a8fyDZB-26" edge="1">
          <mxGeometry relative="1" as="geometry" />
        </mxCell>
        <mxCell id="xFyrg9qpgeF3Z5DftNoa-2" value="" style="edgeStyle=orthogonalEdgeStyle;rounded=0;orthogonalLoop=1;jettySize=auto;html=1;endArrow=none;endFill=0;" parent="1" source="esEqVlL6re1M1a8fyDZB-2" target="xFyrg9qpgeF3Z5DftNoa-1" edge="1">
          <mxGeometry relative="1" as="geometry" />
        </mxCell>
        <mxCell id="xFyrg9qpgeF3Z5DftNoa-5" style="edgeStyle=orthogonalEdgeStyle;rounded=0;orthogonalLoop=1;jettySize=auto;html=1;exitX=0.75;exitY=1;exitDx=0;exitDy=0;entryX=0.5;entryY=0;entryDx=0;entryDy=0;endArrow=none;endFill=0;" parent="1" source="esEqVlL6re1M1a8fyDZB-2" target="esEqVlL6re1M1a8fyDZB-30" edge="1">
          <mxGeometry relative="1" as="geometry">
            <Array as="points">
              <mxPoint x="-167" y="110" />
              <mxPoint x="-62" y="110" />
            </Array>
          </mxGeometry>
        </mxCell>
        <mxCell id="xFyrg9qpgeF3Z5DftNoa-26" style="edgeStyle=orthogonalEdgeStyle;rounded=0;orthogonalLoop=1;jettySize=auto;html=1;exitX=0;exitY=0;exitDx=0;exitDy=0;endArrow=oval;endFill=1;" parent="1" source="esEqVlL6re1M1a8fyDZB-2" target="xFyrg9qpgeF3Z5DftNoa-27" edge="1">
          <mxGeometry relative="1" as="geometry">
            <mxPoint x="-210" y="20" as="targetPoint" />
          </mxGeometry>
        </mxCell>
        <mxCell id="xFyrg9qpgeF3Z5DftNoa-30" style="edgeStyle=orthogonalEdgeStyle;rounded=0;orthogonalLoop=1;jettySize=auto;html=1;exitX=1;exitY=0;exitDx=0;exitDy=0;endArrow=oval;endFill=0;" parent="1" source="esEqVlL6re1M1a8fyDZB-2" target="xFyrg9qpgeF3Z5DftNoa-31" edge="1">
          <mxGeometry relative="1" as="geometry">
            <mxPoint x="-150.31034482758628" y="30" as="targetPoint" />
          </mxGeometry>
        </mxCell>
        <mxCell id="xFyrg9qpgeF3Z5DftNoa-32" style="edgeStyle=orthogonalEdgeStyle;rounded=0;orthogonalLoop=1;jettySize=auto;html=1;exitX=0;exitY=0.5;exitDx=0;exitDy=0;endArrow=oval;endFill=0;" parent="1" source="esEqVlL6re1M1a8fyDZB-2" edge="1">
          <mxGeometry relative="1" as="geometry">
            <mxPoint x="-240" y="69.0689655172414" as="targetPoint" />
          </mxGeometry>
        </mxCell>
        <mxCell id="esEqVlL6re1M1a8fyDZB-2" value="Visitatore" style="whiteSpace=wrap;html=1;align=center;" parent="1" vertex="1">
          <mxGeometry x="-225" y="47.519999999999996" width="70" height="42.49" as="geometry" />
        </mxCell>
        <mxCell id="esEqVlL6re1M1a8fyDZB-6" value="Visore VR" style="whiteSpace=wrap;html=1;align=center;" parent="1" vertex="1">
          <mxGeometry x="80" y="25" width="77.5" height="20" as="geometry" />
        </mxCell>
        <mxCell id="IS9MgUI0sy-0iihlmr4d-13" style="edgeStyle=orthogonalEdgeStyle;rounded=0;orthogonalLoop=1;jettySize=auto;html=1;exitX=0.25;exitY=0;exitDx=0;exitDy=0;entryX=1;entryY=0.75;entryDx=0;entryDy=0;endArrow=oval;endFill=1;" parent="1" source="esEqVlL6re1M1a8fyDZB-7" target="IS9MgUI0sy-0iihlmr4d-2" edge="1">
          <mxGeometry relative="1" as="geometry" />
        </mxCell>
        <mxCell id="IS9MgUI0sy-0iihlmr4d-24" style="edgeStyle=orthogonalEdgeStyle;rounded=0;orthogonalLoop=1;jettySize=auto;html=1;exitX=1;exitY=0.5;exitDx=0;exitDy=0;entryX=0;entryY=0.5;entryDx=0;entryDy=0;endArrow=oval;endFill=0;" parent="1" source="esEqVlL6re1M1a8fyDZB-7" target="IS9MgUI0sy-0iihlmr4d-9" edge="1">
          <mxGeometry relative="1" as="geometry" />
        </mxCell>
        <mxCell id="esEqVlL6re1M1a8fyDZB-7" value="Oggetti Informatici" style="whiteSpace=wrap;html=1;align=center;" parent="1" vertex="1">
          <mxGeometry x="137.5" y="-57.5" width="100" height="30" as="geometry" />
        </mxCell>
        <mxCell id="xFyrg9qpgeF3Z5DftNoa-36" style="edgeStyle=orthogonalEdgeStyle;rounded=0;orthogonalLoop=1;jettySize=auto;html=1;exitX=0.25;exitY=0;exitDx=0;exitDy=0;entryX=0.5;entryY=1;entryDx=0;entryDy=0;endArrow=oval;endFill=0;" parent="1" source="esEqVlL6re1M1a8fyDZB-8" target="xFyrg9qpgeF3Z5DftNoa-35" edge="1">
          <mxGeometry relative="1" as="geometry" />
        </mxCell>
        <mxCell id="xFyrg9qpgeF3Z5DftNoa-37" style="edgeStyle=orthogonalEdgeStyle;rounded=0;orthogonalLoop=1;jettySize=auto;html=1;exitX=1;exitY=0;exitDx=0;exitDy=0;entryX=0.25;entryY=1;entryDx=0;entryDy=0;endArrow=oval;endFill=0;" parent="1" source="esEqVlL6re1M1a8fyDZB-8" target="xFyrg9qpgeF3Z5DftNoa-34" edge="1">
          <mxGeometry relative="1" as="geometry" />
        </mxCell>
        <mxCell id="xFyrg9qpgeF3Z5DftNoa-39" style="edgeStyle=orthogonalEdgeStyle;rounded=0;orthogonalLoop=1;jettySize=auto;html=1;exitX=1;exitY=0.5;exitDx=0;exitDy=0;entryX=0;entryY=0.5;entryDx=0;entryDy=0;endArrow=oval;endFill=0;" parent="1" source="esEqVlL6re1M1a8fyDZB-8" target="xFyrg9qpgeF3Z5DftNoa-38" edge="1">
          <mxGeometry relative="1" as="geometry">
            <Array as="points">
              <mxPoint x="130" y="145" />
            </Array>
          </mxGeometry>
        </mxCell>
        <mxCell id="sCdLPjGgIY4ofrzn0zne-10" style="edgeStyle=orthogonalEdgeStyle;rounded=0;orthogonalLoop=1;jettySize=auto;html=1;exitX=1;exitY=0.75;exitDx=0;exitDy=0;entryX=0.5;entryY=1;entryDx=0;entryDy=0;endArrow=none;endFill=0;" parent="1" source="esEqVlL6re1M1a8fyDZB-8" target="sCdLPjGgIY4ofrzn0zne-9" edge="1">
          <mxGeometry relative="1" as="geometry">
            <Array as="points">
              <mxPoint x="130" y="190" />
              <mxPoint x="270" y="190" />
            </Array>
          </mxGeometry>
        </mxCell>
        <mxCell id="O113cSQGS3Kzy_eXXIUR-5" style="edgeStyle=orthogonalEdgeStyle;rounded=0;orthogonalLoop=1;jettySize=auto;html=1;exitX=0.75;exitY=1;exitDx=0;exitDy=0;entryX=0;entryY=0.5;entryDx=0;entryDy=0;endArrow=none;endFill=0;" edge="1" parent="1" source="esEqVlL6re1M1a8fyDZB-8" target="O113cSQGS3Kzy_eXXIUR-4">
          <mxGeometry relative="1" as="geometry">
            <Array as="points">
              <mxPoint x="113" y="210" />
              <mxPoint x="162" y="210" />
              <mxPoint x="162" y="243" />
            </Array>
          </mxGeometry>
        </mxCell>
        <mxCell id="esEqVlL6re1M1a8fyDZB-8" value="CiviltÃ " style="whiteSpace=wrap;html=1;align=center;" parent="1" vertex="1">
          <mxGeometry x="60" y="137.5" width="70" height="30" as="geometry" />
        </mxCell>
        <mxCell id="IS9MgUI0sy-0iihlmr4d-50" style="edgeStyle=orthogonalEdgeStyle;rounded=0;orthogonalLoop=1;jettySize=auto;html=1;exitX=0;exitY=0;exitDx=0;exitDy=0;entryX=1;entryY=1;entryDx=0;entryDy=0;endArrow=oval;endFill=0;" parent="1" source="esEqVlL6re1M1a8fyDZB-10" target="IS9MgUI0sy-0iihlmr4d-46" edge="1">
          <mxGeometry relative="1" as="geometry" />
        </mxCell>
        <mxCell id="psAY5yPwDMX2NuFO3N5F-6" style="edgeStyle=orthogonalEdgeStyle;rounded=0;orthogonalLoop=1;jettySize=auto;html=1;exitX=1;exitY=0.75;exitDx=0;exitDy=0;entryX=0;entryY=0.5;entryDx=0;entryDy=0;endArrow=oval;endFill=0;" parent="1" source="esEqVlL6re1M1a8fyDZB-10" target="IS9MgUI0sy-0iihlmr4d-49" edge="1">
          <mxGeometry relative="1" as="geometry" />
        </mxCell>
        <mxCell id="psAY5yPwDMX2NuFO3N5F-7" style="edgeStyle=orthogonalEdgeStyle;rounded=0;orthogonalLoop=1;jettySize=auto;html=1;exitX=0;exitY=0.5;exitDx=0;exitDy=0;entryX=1;entryY=0;entryDx=0;entryDy=0;endArrow=oval;endFill=0;" parent="1" source="esEqVlL6re1M1a8fyDZB-10" target="IS9MgUI0sy-0iihlmr4d-48" edge="1">
          <mxGeometry relative="1" as="geometry" />
        </mxCell>
        <mxCell id="O113cSQGS3Kzy_eXXIUR-11" style="edgeStyle=orthogonalEdgeStyle;rounded=0;orthogonalLoop=1;jettySize=auto;html=1;exitX=1;exitY=0;exitDx=0;exitDy=0;entryX=0;entryY=0.5;entryDx=0;entryDy=0;endArrow=oval;endFill=0;" edge="1" parent="1" source="esEqVlL6re1M1a8fyDZB-10" target="IS9MgUI0sy-0iihlmr4d-47">
          <mxGeometry relative="1" as="geometry" />
        </mxCell>
        <mxCell id="esEqVlL6re1M1a8fyDZB-10" value="Abbigliamento" style="whiteSpace=wrap;html=1;align=center;" parent="1" vertex="1">
          <mxGeometry x="55" y="327.5" width="85" height="30" as="geometry" />
        </mxCell>
        <mxCell id="esEqVlL6re1M1a8fyDZB-11" value="Abito" style="whiteSpace=wrap;html=1;align=center;" parent="1" vertex="1">
          <mxGeometry x="-5" y="411.5" width="60" height="20" as="geometry" />
        </mxCell>
        <mxCell id="esEqVlL6re1M1a8fyDZB-12" value="Accessorio" style="whiteSpace=wrap;html=1;align=center;" parent="1" vertex="1">
          <mxGeometry x="130" y="411.5" width="70" height="20" as="geometry" />
        </mxCell>
        <mxCell id="yjBL0NTRzS2PuPFi7aJE-13" style="edgeStyle=orthogonalEdgeStyle;rounded=0;orthogonalLoop=1;jettySize=auto;html=1;exitX=0.5;exitY=1;exitDx=0;exitDy=0;entryX=0.5;entryY=0;entryDx=0;entryDy=0;endArrow=none;endFill=0;" parent="1" source="sCdLPjGgIY4ofrzn0zne-15" target="yjBL0NTRzS2PuPFi7aJE-12" edge="1">
          <mxGeometry relative="1" as="geometry" />
        </mxCell>
        <mxCell id="psAY5yPwDMX2NuFO3N5F-16" style="edgeStyle=orthogonalEdgeStyle;rounded=0;orthogonalLoop=1;jettySize=auto;html=1;exitX=0;exitY=0.25;exitDx=0;exitDy=0;endArrow=oval;endFill=0;" parent="1" source="esEqVlL6re1M1a8fyDZB-13" edge="1">
          <mxGeometry relative="1" as="geometry">
            <mxPoint x="310" y="180" as="targetPoint" />
          </mxGeometry>
        </mxCell>
        <mxCell id="psAY5yPwDMX2NuFO3N5F-19" style="edgeStyle=orthogonalEdgeStyle;rounded=0;orthogonalLoop=1;jettySize=auto;html=1;exitX=0.75;exitY=0;exitDx=0;exitDy=0;entryX=0;entryY=1;entryDx=0;entryDy=0;endArrow=oval;endFill=0;" parent="1" source="esEqVlL6re1M1a8fyDZB-13" target="psAY5yPwDMX2NuFO3N5F-12" edge="1">
          <mxGeometry relative="1" as="geometry" />
        </mxCell>
        <mxCell id="esEqVlL6re1M1a8fyDZB-13" value="Collezione" style="whiteSpace=wrap;html=1;align=center;" parent="1" vertex="1">
          <mxGeometry x="310" y="200" width="90" height="40" as="geometry" />
        </mxCell>
        <mxCell id="xFyrg9qpgeF3Z5DftNoa-19" style="edgeStyle=orthogonalEdgeStyle;rounded=0;orthogonalLoop=1;jettySize=auto;html=1;exitX=0.75;exitY=0;exitDx=0;exitDy=0;entryX=0.5;entryY=0;entryDx=0;entryDy=0;endArrow=none;endFill=0;" parent="1" source="esEqVlL6re1M1a8fyDZB-14" target="xFyrg9qpgeF3Z5DftNoa-18" edge="1">
          <mxGeometry relative="1" as="geometry">
            <Array as="points">
              <mxPoint x="400" y="450" />
              <mxPoint x="400" y="430" />
              <mxPoint x="510" y="430" />
            </Array>
          </mxGeometry>
        </mxCell>
        <mxCell id="xFyrg9qpgeF3Z5DftNoa-20" style="edgeStyle=orthogonalEdgeStyle;rounded=0;orthogonalLoop=1;jettySize=auto;html=1;exitX=0.75;exitY=1;exitDx=0;exitDy=0;entryX=0.5;entryY=1;entryDx=0;entryDy=0;endArrow=none;endFill=0;" parent="1" source="esEqVlL6re1M1a8fyDZB-14" target="xFyrg9qpgeF3Z5DftNoa-18" edge="1">
          <mxGeometry relative="1" as="geometry">
            <Array as="points">
              <mxPoint x="400" y="490" />
              <mxPoint x="400" y="519" />
              <mxPoint x="510" y="519" />
            </Array>
          </mxGeometry>
        </mxCell>
        <mxCell id="psAY5yPwDMX2NuFO3N5F-29" style="edgeStyle=orthogonalEdgeStyle;rounded=0;orthogonalLoop=1;jettySize=auto;html=1;exitX=0;exitY=0;exitDx=0;exitDy=0;entryX=1;entryY=0.75;entryDx=0;entryDy=0;endArrow=oval;endFill=1;" parent="1" source="esEqVlL6re1M1a8fyDZB-14" target="psAY5yPwDMX2NuFO3N5F-22" edge="1">
          <mxGeometry relative="1" as="geometry" />
        </mxCell>
        <mxCell id="psAY5yPwDMX2NuFO3N5F-30" style="edgeStyle=orthogonalEdgeStyle;rounded=0;orthogonalLoop=1;jettySize=auto;html=1;exitX=0;exitY=0.5;exitDx=0;exitDy=0;entryX=1;entryY=0.25;entryDx=0;entryDy=0;endArrow=oval;endFill=0;" parent="1" source="esEqVlL6re1M1a8fyDZB-14" target="psAY5yPwDMX2NuFO3N5F-24" edge="1">
          <mxGeometry relative="1" as="geometry" />
        </mxCell>
        <mxCell id="esEqVlL6re1M1a8fyDZB-14" value="Oggetto" style="whiteSpace=wrap;html=1;align=center;" parent="1" vertex="1">
          <mxGeometry x="305" y="450" width="100" height="40" as="geometry" />
        </mxCell>
        <mxCell id="psAY5yPwDMX2NuFO3N5F-37" style="edgeStyle=orthogonalEdgeStyle;rounded=0;orthogonalLoop=1;jettySize=auto;html=1;exitX=1;exitY=0;exitDx=0;exitDy=0;entryX=0.25;entryY=1;entryDx=0;entryDy=0;endArrow=oval;endFill=0;" parent="1" source="esEqVlL6re1M1a8fyDZB-26" target="psAY5yPwDMX2NuFO3N5F-35" edge="1">
          <mxGeometry relative="1" as="geometry" />
        </mxCell>
        <mxCell id="psAY5yPwDMX2NuFO3N5F-42" style="edgeStyle=orthogonalEdgeStyle;rounded=0;orthogonalLoop=1;jettySize=auto;html=1;exitX=0;exitY=1;exitDx=0;exitDy=0;entryX=0.75;entryY=0;entryDx=0;entryDy=0;endArrow=oval;endFill=0;" parent="1" source="esEqVlL6re1M1a8fyDZB-26" target="psAY5yPwDMX2NuFO3N5F-36" edge="1">
          <mxGeometry relative="1" as="geometry" />
        </mxCell>
        <mxCell id="gv4DbaSQQRbEuML4uvOJ-2" style="edgeStyle=orthogonalEdgeStyle;rounded=0;orthogonalLoop=1;jettySize=auto;html=1;exitX=0.5;exitY=0;exitDx=0;exitDy=0;entryX=0;entryY=0.25;entryDx=0;entryDy=0;endArrow=none;endFill=0;" parent="1" source="esEqVlL6re1M1a8fyDZB-26" target="esEqVlL6re1M1a8fyDZB-7" edge="1">
          <mxGeometry relative="1" as="geometry" />
        </mxCell>
        <mxCell id="esEqVlL6re1M1a8fyDZB-26" value="Visita" style="shape=rhombus;perimeter=rhombusPerimeter;whiteSpace=wrap;html=1;align=center;" parent="1" vertex="1">
          <mxGeometry x="-35" y="38.76" width="100" height="60" as="geometry" />
        </mxCell>
        <mxCell id="xFyrg9qpgeF3Z5DftNoa-8" style="edgeStyle=orthogonalEdgeStyle;rounded=0;orthogonalLoop=1;jettySize=auto;html=1;exitX=0.75;exitY=1;exitDx=0;exitDy=0;entryX=0.5;entryY=1;entryDx=0;entryDy=0;endArrow=none;endFill=0;" parent="1" source="esEqVlL6re1M1a8fyDZB-29" target="xFyrg9qpgeF3Z5DftNoa-6" edge="1">
          <mxGeometry relative="1" as="geometry" />
        </mxCell>
        <mxCell id="xFyrg9qpgeF3Z5DftNoa-9" style="edgeStyle=orthogonalEdgeStyle;rounded=0;orthogonalLoop=1;jettySize=auto;html=1;exitX=0.5;exitY=1;exitDx=0;exitDy=0;entryX=0.5;entryY=1;entryDx=0;entryDy=0;endArrow=none;endFill=0;" parent="1" source="esEqVlL6re1M1a8fyDZB-29" target="xFyrg9qpgeF3Z5DftNoa-7" edge="1">
          <mxGeometry relative="1" as="geometry">
            <Array as="points">
              <mxPoint x="-185" y="570" />
              <mxPoint x="165" y="570" />
            </Array>
          </mxGeometry>
        </mxCell>
        <mxCell id="xFyrg9qpgeF3Z5DftNoa-11" style="edgeStyle=orthogonalEdgeStyle;rounded=0;orthogonalLoop=1;jettySize=auto;html=1;exitX=0.25;exitY=1;exitDx=0;exitDy=0;entryX=0.5;entryY=1;entryDx=0;entryDy=0;endArrow=none;endFill=0;" parent="1" source="esEqVlL6re1M1a8fyDZB-29" target="xFyrg9qpgeF3Z5DftNoa-10" edge="1">
          <mxGeometry relative="1" as="geometry" />
        </mxCell>
        <mxCell id="xFyrg9qpgeF3Z5DftNoa-16" style="edgeStyle=orthogonalEdgeStyle;rounded=0;orthogonalLoop=1;jettySize=auto;html=1;exitX=1;exitY=1;exitDx=0;exitDy=0;entryX=0.5;entryY=1;entryDx=0;entryDy=0;endArrow=none;endFill=0;" parent="1" source="esEqVlL6re1M1a8fyDZB-29" target="xFyrg9qpgeF3Z5DftNoa-15" edge="1">
          <mxGeometry relative="1" as="geometry">
            <Array as="points">
              <mxPoint x="-150" y="290" />
              <mxPoint x="-150" y="310" />
              <mxPoint x="-70" y="310" />
            </Array>
          </mxGeometry>
        </mxCell>
        <mxCell id="IS9MgUI0sy-0iihlmr4d-43" style="edgeStyle=orthogonalEdgeStyle;rounded=0;orthogonalLoop=1;jettySize=auto;html=1;exitX=0;exitY=0.75;exitDx=0;exitDy=0;entryX=1;entryY=1;entryDx=0;entryDy=0;endArrow=oval;endFill=1;" parent="1" source="esEqVlL6re1M1a8fyDZB-29" target="IS9MgUI0sy-0iihlmr4d-39" edge="1">
          <mxGeometry relative="1" as="geometry" />
        </mxCell>
        <mxCell id="IS9MgUI0sy-0iihlmr4d-44" style="edgeStyle=orthogonalEdgeStyle;rounded=0;orthogonalLoop=1;jettySize=auto;html=1;exitX=0;exitY=0;exitDx=0;exitDy=0;entryX=0.5;entryY=1;entryDx=0;entryDy=0;endArrow=oval;endFill=0;" parent="1" source="esEqVlL6re1M1a8fyDZB-29" target="IS9MgUI0sy-0iihlmr4d-40" edge="1">
          <mxGeometry relative="1" as="geometry" />
        </mxCell>
        <mxCell id="IS9MgUI0sy-0iihlmr4d-45" style="edgeStyle=orthogonalEdgeStyle;rounded=0;orthogonalLoop=1;jettySize=auto;html=1;exitX=0;exitY=1;exitDx=0;exitDy=0;entryX=1;entryY=0.25;entryDx=0;entryDy=0;endArrow=oval;endFill=0;" parent="1" source="esEqVlL6re1M1a8fyDZB-29" target="IS9MgUI0sy-0iihlmr4d-41" edge="1">
          <mxGeometry relative="1" as="geometry" />
        </mxCell>
        <mxCell id="sCdLPjGgIY4ofrzn0zne-23" style="edgeStyle=orthogonalEdgeStyle;rounded=0;orthogonalLoop=1;jettySize=auto;html=1;exitX=0.75;exitY=0;exitDx=0;exitDy=0;entryX=0;entryY=0.5;entryDx=0;entryDy=0;endArrow=none;endFill=0;" parent="1" source="esEqVlL6re1M1a8fyDZB-29" target="sCdLPjGgIY4ofrzn0zne-22" edge="1">
          <mxGeometry relative="1" as="geometry" />
        </mxCell>
        <mxCell id="esEqVlL6re1M1a8fyDZB-29" value="Avatar" style="whiteSpace=wrap;html=1;align=center;" parent="1" vertex="1">
          <mxGeometry x="-230" y="260" width="90" height="30" as="geometry" />
        </mxCell>
        <mxCell id="xFyrg9qpgeF3Z5DftNoa-21" style="edgeStyle=orthogonalEdgeStyle;rounded=0;orthogonalLoop=1;jettySize=auto;html=1;exitX=1;exitY=0.5;exitDx=0;exitDy=0;entryX=0;entryY=0.5;entryDx=0;entryDy=0;endArrow=none;endFill=0;" parent="1" source="esEqVlL6re1M1a8fyDZB-30" target="esEqVlL6re1M1a8fyDZB-8" edge="1">
          <mxGeometry relative="1" as="geometry" />
        </mxCell>
        <mxCell id="esEqVlL6re1M1a8fyDZB-30" value="Scelta" style="shape=rhombus;perimeter=rhombusPerimeter;whiteSpace=wrap;html=1;align=center;" parent="1" vertex="1">
          <mxGeometry x="-95" y="105" width="65" height="45" as="geometry" />
        </mxCell>
        <mxCell id="esEqVlL6re1M1a8fyDZB-35" style="edgeStyle=orthogonalEdgeStyle;rounded=0;orthogonalLoop=1;jettySize=auto;html=1;endArrow=none;endFill=0;" parent="1" source="esEqVlL6re1M1a8fyDZB-34" target="esEqVlL6re1M1a8fyDZB-8" edge="1">
          <mxGeometry relative="1" as="geometry">
            <Array as="points">
              <mxPoint x="97" y="180" />
              <mxPoint x="97" y="180" />
            </Array>
          </mxGeometry>
        </mxCell>
        <mxCell id="esEqVlL6re1M1a8fyDZB-36" style="edgeStyle=orthogonalEdgeStyle;rounded=0;orthogonalLoop=1;jettySize=auto;html=1;endArrow=none;endFill=0;" parent="1" source="esEqVlL6re1M1a8fyDZB-34" target="esEqVlL6re1M1a8fyDZB-10" edge="1">
          <mxGeometry relative="1" as="geometry" />
        </mxCell>
        <mxCell id="esEqVlL6re1M1a8fyDZB-34" value="Appartenenza" style="shape=rhombus;perimeter=rhombusPerimeter;whiteSpace=wrap;html=1;align=center;" parent="1" vertex="1">
          <mxGeometry x="50" y="222.5" width="95" height="55" as="geometry" />
        </mxCell>
        <mxCell id="yjBL0NTRzS2PuPFi7aJE-14" style="edgeStyle=orthogonalEdgeStyle;rounded=0;orthogonalLoop=1;jettySize=auto;html=1;exitX=0.5;exitY=1;exitDx=0;exitDy=0;entryX=0.5;entryY=0;entryDx=0;entryDy=0;endArrow=none;endFill=0;" parent="1" source="yjBL0NTRzS2PuPFi7aJE-12" target="esEqVlL6re1M1a8fyDZB-14" edge="1">
          <mxGeometry relative="1" as="geometry" />
        </mxCell>
        <mxCell id="yjBL0NTRzS2PuPFi7aJE-12" value="Contenimento" style="shape=rhombus;perimeter=rhombusPerimeter;whiteSpace=wrap;html=1;align=center;" parent="1" vertex="1">
          <mxGeometry x="305" y="340" width="100" height="60" as="geometry" />
        </mxCell>
        <mxCell id="xFyrg9qpgeF3Z5DftNoa-3" style="edgeStyle=orthogonalEdgeStyle;rounded=0;orthogonalLoop=1;jettySize=auto;html=1;exitX=0.5;exitY=1;exitDx=0;exitDy=0;entryX=0.5;entryY=0;entryDx=0;entryDy=0;endArrow=none;endFill=0;" parent="1" source="xFyrg9qpgeF3Z5DftNoa-1" target="esEqVlL6re1M1a8fyDZB-29" edge="1">
          <mxGeometry relative="1" as="geometry" />
        </mxCell>
        <mxCell id="xFyrg9qpgeF3Z5DftNoa-1" value="Creazione" style="shape=rhombus;perimeter=rhombusPerimeter;whiteSpace=wrap;html=1;align=center;" parent="1" vertex="1">
          <mxGeometry x="-230" y="150" width="77.5" height="45" as="geometry" />
        </mxCell>
        <mxCell id="xFyrg9qpgeF3Z5DftNoa-14" style="edgeStyle=orthogonalEdgeStyle;rounded=0;orthogonalLoop=1;jettySize=auto;html=1;exitX=0.5;exitY=0;exitDx=0;exitDy=0;entryX=0.5;entryY=1;entryDx=0;entryDy=0;endArrow=none;endFill=0;" parent="1" source="xFyrg9qpgeF3Z5DftNoa-6" target="esEqVlL6re1M1a8fyDZB-11" edge="1">
          <mxGeometry relative="1" as="geometry" />
        </mxCell>
        <mxCell id="xFyrg9qpgeF3Z5DftNoa-6" value="Indossa" style="shape=rhombus;perimeter=rhombusPerimeter;whiteSpace=wrap;html=1;align=center;" parent="1" vertex="1">
          <mxGeometry x="-15" y="454" width="80" height="50" as="geometry" />
        </mxCell>
        <mxCell id="xFyrg9qpgeF3Z5DftNoa-13" style="edgeStyle=orthogonalEdgeStyle;rounded=0;orthogonalLoop=1;jettySize=auto;html=1;exitX=0.5;exitY=0;exitDx=0;exitDy=0;entryX=0.5;entryY=1;entryDx=0;entryDy=0;endArrow=none;endFill=0;" parent="1" source="xFyrg9qpgeF3Z5DftNoa-7" target="esEqVlL6re1M1a8fyDZB-12" edge="1">
          <mxGeometry relative="1" as="geometry" />
        </mxCell>
        <mxCell id="xFyrg9qpgeF3Z5DftNoa-7" value="Utilizzo" style="shape=rhombus;perimeter=rhombusPerimeter;whiteSpace=wrap;html=1;align=center;" parent="1" vertex="1">
          <mxGeometry x="125" y="502.5" width="80" height="50" as="geometry" />
        </mxCell>
        <mxCell id="xFyrg9qpgeF3Z5DftNoa-12" style="edgeStyle=orthogonalEdgeStyle;rounded=0;orthogonalLoop=1;jettySize=auto;html=1;exitX=0.5;exitY=0;exitDx=0;exitDy=0;endArrow=none;endFill=0;" parent="1" source="xFyrg9qpgeF3Z5DftNoa-10" target="esEqVlL6re1M1a8fyDZB-14" edge="1">
          <mxGeometry relative="1" as="geometry" />
        </mxCell>
        <mxCell id="xFyrg9qpgeF3Z5DftNoa-10" value="Interazione" style="shape=rhombus;perimeter=rhombusPerimeter;whiteSpace=wrap;html=1;align=center;" parent="1" vertex="1">
          <mxGeometry x="315" y="535" width="80" height="50" as="geometry" />
        </mxCell>
        <mxCell id="xFyrg9qpgeF3Z5DftNoa-17" style="edgeStyle=orthogonalEdgeStyle;rounded=0;orthogonalLoop=1;jettySize=auto;html=1;exitX=0.5;exitY=0;exitDx=0;exitDy=0;entryX=0.75;entryY=0;entryDx=0;entryDy=0;endArrow=none;endFill=0;" parent="1" source="xFyrg9qpgeF3Z5DftNoa-15" target="esEqVlL6re1M1a8fyDZB-29" edge="1">
          <mxGeometry relative="1" as="geometry">
            <Array as="points">
              <mxPoint x="-70" y="230" />
              <mxPoint x="-150" y="230" />
              <mxPoint x="-150" y="260" />
            </Array>
          </mxGeometry>
        </mxCell>
        <mxCell id="psAY5yPwDMX2NuFO3N5F-46" style="edgeStyle=orthogonalEdgeStyle;rounded=0;orthogonalLoop=1;jettySize=auto;html=1;exitX=1;exitY=0;exitDx=0;exitDy=0;entryX=0.25;entryY=1;entryDx=0;entryDy=0;endArrow=oval;endFill=0;" parent="1" source="xFyrg9qpgeF3Z5DftNoa-15" target="psAY5yPwDMX2NuFO3N5F-45" edge="1">
          <mxGeometry relative="1" as="geometry" />
        </mxCell>
        <mxCell id="psAY5yPwDMX2NuFO3N5F-47" style="edgeStyle=orthogonalEdgeStyle;rounded=0;orthogonalLoop=1;jettySize=auto;html=1;exitX=1;exitY=1;exitDx=0;exitDy=0;entryX=0.25;entryY=0;entryDx=0;entryDy=0;endArrow=oval;endFill=0;" parent="1" source="xFyrg9qpgeF3Z5DftNoa-15" target="psAY5yPwDMX2NuFO3N5F-44" edge="1">
          <mxGeometry relative="1" as="geometry" />
        </mxCell>
        <mxCell id="xFyrg9qpgeF3Z5DftNoa-15" value="Relazione" style="shape=rhombus;perimeter=rhombusPerimeter;whiteSpace=wrap;html=1;align=center;" parent="1" vertex="1">
          <mxGeometry x="-110" y="250" width="80" height="50" as="geometry" />
        </mxCell>
        <mxCell id="psAY5yPwDMX2NuFO3N5F-49" style="edgeStyle=orthogonalEdgeStyle;rounded=0;orthogonalLoop=1;jettySize=auto;html=1;exitX=1;exitY=0;exitDx=0;exitDy=0;entryX=0.25;entryY=1;entryDx=0;entryDy=0;endArrow=oval;endFill=0;" parent="1" source="xFyrg9qpgeF3Z5DftNoa-18" target="psAY5yPwDMX2NuFO3N5F-48" edge="1">
          <mxGeometry relative="1" as="geometry" />
        </mxCell>
        <mxCell id="xFyrg9qpgeF3Z5DftNoa-18" value="Correlazione" style="shape=rhombus;perimeter=rhombusPerimeter;whiteSpace=wrap;html=1;align=center;" parent="1" vertex="1">
          <mxGeometry x="470" y="448.5" width="80" height="50" as="geometry" />
        </mxCell>
        <mxCell id="xFyrg9qpgeF3Z5DftNoa-27" value="&lt;font style=&quot;font-size: 8px;&quot;&gt;CF&lt;/font&gt;" style="text;html=1;align=center;verticalAlign=middle;whiteSpace=wrap;rounded=0;" parent="1" vertex="1">
          <mxGeometry x="-250" width="60" height="30" as="geometry" />
        </mxCell>
        <mxCell id="xFyrg9qpgeF3Z5DftNoa-28" style="edgeStyle=orthogonalEdgeStyle;rounded=0;orthogonalLoop=1;jettySize=auto;html=1;exitX=0.5;exitY=0;exitDx=0;exitDy=0;endArrow=oval;endFill=0;" parent="1" source="esEqVlL6re1M1a8fyDZB-2" target="xFyrg9qpgeF3Z5DftNoa-29" edge="1">
          <mxGeometry relative="1" as="geometry" />
        </mxCell>
        <mxCell id="xFyrg9qpgeF3Z5DftNoa-29" value="&lt;font style=&quot;font-size: 8px;&quot;&gt;Nome&lt;/font&gt;" style="text;html=1;align=center;verticalAlign=middle;whiteSpace=wrap;rounded=0;" parent="1" vertex="1">
          <mxGeometry x="-215" y="-10" width="60" height="30" as="geometry" />
        </mxCell>
        <mxCell id="xFyrg9qpgeF3Z5DftNoa-31" value="&lt;font style=&quot;font-size: 8px;&quot;&gt;Cognome&lt;/font&gt;" style="text;html=1;align=center;verticalAlign=middle;whiteSpace=wrap;rounded=0;" parent="1" vertex="1">
          <mxGeometry x="-180" y="-20" width="60" height="30" as="geometry" />
        </mxCell>
        <mxCell id="xFyrg9qpgeF3Z5DftNoa-33" value="&lt;font style=&quot;font-size: 8px;&quot;&gt;email&lt;/font&gt;" style="text;html=1;align=center;verticalAlign=middle;whiteSpace=wrap;rounded=1;strokeColor=none;" parent="1" vertex="1">
          <mxGeometry x="-280" y="60" width="40" height="23" as="geometry" />
        </mxCell>
        <mxCell id="xFyrg9qpgeF3Z5DftNoa-34" value="&lt;font style=&quot;font-size: 9px;&quot;&gt;Periodo storico&lt;/font&gt;" style="text;html=1;align=center;verticalAlign=middle;whiteSpace=wrap;rounded=0;" parent="1" vertex="1">
          <mxGeometry x="100" y="90" width="70" height="30" as="geometry" />
        </mxCell>
        <mxCell id="xFyrg9qpgeF3Z5DftNoa-35" value="&lt;font style=&quot;font-size: 8px;&quot;&gt;Nome&lt;/font&gt;" style="text;html=1;align=center;verticalAlign=middle;whiteSpace=wrap;rounded=0;" parent="1" vertex="1">
          <mxGeometry x="50" y="89.99999999999999" width="60" height="30" as="geometry" />
        </mxCell>
        <mxCell id="xFyrg9qpgeF3Z5DftNoa-38" value="&lt;font style=&quot;font-size: 9px;&quot;&gt;Area Geografica&lt;/font&gt;" style="text;html=1;align=center;verticalAlign=middle;whiteSpace=wrap;rounded=0;" parent="1" vertex="1">
          <mxGeometry x="145" y="130" width="60" height="30" as="geometry" />
        </mxCell>
        <mxCell id="IS9MgUI0sy-0iihlmr4d-1" value="" style="curved=1;endArrow=oval;html=1;rounded=0;entryX=0.642;entryY=0.924;entryDx=0;entryDy=0;entryPerimeter=0;endFill=1;" parent="1" target="xFyrg9qpgeF3Z5DftNoa-34" edge="1">
          <mxGeometry width="50" height="50" relative="1" as="geometry">
            <mxPoint x="40" y="130" as="sourcePoint" />
            <mxPoint x="30" y="100" as="targetPoint" />
            <Array as="points">
              <mxPoint x="90" y="130" />
              <mxPoint x="140" y="130" />
            </Array>
          </mxGeometry>
        </mxCell>
        <mxCell id="IS9MgUI0sy-0iihlmr4d-2" value="&lt;font style=&quot;font-size: 8px;&quot;&gt;Numero di serie&lt;/font&gt;" style="text;html=1;align=center;verticalAlign=middle;whiteSpace=wrap;rounded=1;strokeColor=none;" parent="1" vertex="1">
          <mxGeometry x="62.5" y="-90" width="70" height="20" as="geometry" />
        </mxCell>
        <mxCell id="IS9MgUI0sy-0iihlmr4d-4" value="&lt;font style=&quot;font-size: 8px;&quot;&gt;Misura&lt;/font&gt;" style="text;html=1;align=center;verticalAlign=middle;whiteSpace=wrap;rounded=1;strokeColor=none;" parent="1" vertex="1">
          <mxGeometry x="147.5" y="-100" width="50" height="20" as="geometry" />
        </mxCell>
        <mxCell id="IS9MgUI0sy-0iihlmr4d-5" value="&lt;font style=&quot;font-size: 8px;&quot;&gt;Modello&lt;/font&gt;" style="text;html=1;align=center;verticalAlign=middle;whiteSpace=wrap;rounded=1;strokeColor=none;" parent="1" vertex="1">
          <mxGeometry x="217.5" y="-90" width="40" height="20" as="geometry" />
        </mxCell>
        <mxCell id="IS9MgUI0sy-0iihlmr4d-9" value="&lt;span style=&quot;font-size: 8px;&quot;&gt;DisponibilitÃ &lt;/span&gt;" style="text;html=1;align=center;verticalAlign=middle;whiteSpace=wrap;rounded=1;strokeColor=none;" parent="1" vertex="1">
          <mxGeometry x="255" y="-55" width="50" height="20" as="geometry" />
        </mxCell>
        <mxCell id="IS9MgUI0sy-0iihlmr4d-10" value="&lt;font style=&quot;font-size: 8px;&quot;&gt;Marca&lt;/font&gt;" style="text;html=1;align=center;verticalAlign=middle;whiteSpace=wrap;rounded=1;strokeColor=none;glass=0;" parent="1" vertex="1">
          <mxGeometry x="55" y="-42.5" width="50" height="15" as="geometry" />
        </mxCell>
        <mxCell id="IS9MgUI0sy-0iihlmr4d-12" style="edgeStyle=orthogonalEdgeStyle;rounded=0;orthogonalLoop=1;jettySize=auto;html=1;exitX=0;exitY=0.75;exitDx=0;exitDy=0;entryX=1.041;entryY=0.886;entryDx=0;entryDy=0;entryPerimeter=0;endArrow=oval;endFill=0;" parent="1" source="esEqVlL6re1M1a8fyDZB-7" target="IS9MgUI0sy-0iihlmr4d-10" edge="1">
          <mxGeometry relative="1" as="geometry" />
        </mxCell>
        <mxCell id="IS9MgUI0sy-0iihlmr4d-19" style="edgeStyle=orthogonalEdgeStyle;rounded=0;orthogonalLoop=1;jettySize=auto;html=1;exitX=0.25;exitY=0;exitDx=0;exitDy=0;entryX=0.193;entryY=1.179;entryDx=0;entryDy=0;entryPerimeter=0;endArrow=oval;endFill=0;" parent="1" source="esEqVlL6re1M1a8fyDZB-7" target="IS9MgUI0sy-0iihlmr4d-4" edge="1">
          <mxGeometry relative="1" as="geometry">
            <Array as="points">
              <mxPoint x="157.5" y="-70" />
              <mxPoint x="157.5" y="-70" />
            </Array>
          </mxGeometry>
        </mxCell>
        <mxCell id="IS9MgUI0sy-0iihlmr4d-20" style="edgeStyle=orthogonalEdgeStyle;rounded=0;orthogonalLoop=1;jettySize=auto;html=1;exitX=0.75;exitY=0;exitDx=0;exitDy=0;entryX=0.185;entryY=1.138;entryDx=0;entryDy=0;entryPerimeter=0;endArrow=oval;endFill=0;" parent="1" source="esEqVlL6re1M1a8fyDZB-7" target="IS9MgUI0sy-0iihlmr4d-5" edge="1">
          <mxGeometry relative="1" as="geometry" />
        </mxCell>
        <mxCell id="IS9MgUI0sy-0iihlmr4d-39" value="&lt;font style=&quot;font-size: 8px;&quot;&gt;nickname&lt;/font&gt;" style="text;html=1;align=center;verticalAlign=middle;whiteSpace=wrap;rounded=1;strokeColor=none;" parent="1" vertex="1">
          <mxGeometry x="-290" y="260" width="40" height="23" as="geometry" />
        </mxCell>
        <mxCell id="IS9MgUI0sy-0iihlmr4d-40" value="&lt;font style=&quot;font-size: 8px;&quot;&gt;stato&lt;/font&gt;" style="text;html=1;align=center;verticalAlign=middle;whiteSpace=wrap;rounded=1;strokeColor=none;" parent="1" vertex="1">
          <mxGeometry x="-250" y="229" width="40" height="23" as="geometry" />
        </mxCell>
        <mxCell id="IS9MgUI0sy-0iihlmr4d-41" value="&lt;font style=&quot;font-size: 8px;&quot;&gt;esperienza&lt;/font&gt;" style="text;html=1;align=center;verticalAlign=middle;whiteSpace=wrap;rounded=1;strokeColor=none;" parent="1" vertex="1">
          <mxGeometry x="-270" y="300" width="40" height="23" as="geometry" />
        </mxCell>
        <mxCell id="IS9MgUI0sy-0iihlmr4d-46" value="&lt;font style=&quot;font-size: 9px;&quot;&gt;Nome&lt;/font&gt;" style="text;html=1;align=center;verticalAlign=middle;whiteSpace=wrap;rounded=0;" parent="1" vertex="1">
          <mxGeometry x="15" y="283" width="40" height="17" as="geometry" />
        </mxCell>
        <mxCell id="IS9MgUI0sy-0iihlmr4d-47" value="&lt;font style=&quot;font-size: 9px;&quot;&gt;Materiale&lt;/font&gt;" style="text;html=1;align=center;verticalAlign=middle;whiteSpace=wrap;rounded=0;" parent="1" vertex="1">
          <mxGeometry x="175" y="320" width="35" height="15" as="geometry" />
        </mxCell>
        <mxCell id="IS9MgUI0sy-0iihlmr4d-48" value="&lt;font style=&quot;font-size: 9px;&quot;&gt;Descrizione&lt;/font&gt;" style="text;html=1;align=center;verticalAlign=middle;whiteSpace=wrap;rounded=0;" parent="1" vertex="1">
          <mxGeometry x="-5" y="340.5" width="40" height="17" as="geometry" />
        </mxCell>
        <mxCell id="IS9MgUI0sy-0iihlmr4d-49" value="&lt;font style=&quot;font-size: 9px;&quot;&gt;Colore&lt;/font&gt;" style="text;html=1;align=center;verticalAlign=middle;whiteSpace=wrap;rounded=0;" parent="1" vertex="1">
          <mxGeometry x="157.5" y="340" width="35" height="15" as="geometry" />
        </mxCell>
        <mxCell id="IS9MgUI0sy-0iihlmr4d-51" value="" style="curved=1;endArrow=oval;html=1;rounded=0;entryX=0.642;entryY=0.924;entryDx=0;entryDy=0;entryPerimeter=0;endFill=1;" parent="1" edge="1">
          <mxGeometry width="50" height="50" relative="1" as="geometry">
            <mxPoint x="35" y="320" as="sourcePoint" />
            <mxPoint x="140" y="308" as="targetPoint" />
            <Array as="points">
              <mxPoint x="85" y="320" />
              <mxPoint x="135" y="320" />
            </Array>
          </mxGeometry>
        </mxCell>
        <mxCell id="psAY5yPwDMX2NuFO3N5F-8" value="&lt;font style=&quot;font-size: 9px;&quot;&gt;Stile&lt;/font&gt;" style="text;html=1;align=center;verticalAlign=middle;whiteSpace=wrap;rounded=0;" parent="1" vertex="1">
          <mxGeometry x="-62.5" y="411.5" width="40" height="17" as="geometry" />
        </mxCell>
        <mxCell id="psAY5yPwDMX2NuFO3N5F-9" value="&lt;font style=&quot;font-size: 9px;&quot;&gt;Scopo&lt;/font&gt;" style="text;html=1;align=center;verticalAlign=middle;whiteSpace=wrap;rounded=0;" parent="1" vertex="1">
          <mxGeometry x="225" y="411.5" width="40" height="17" as="geometry" />
        </mxCell>
        <mxCell id="psAY5yPwDMX2NuFO3N5F-10" style="edgeStyle=orthogonalEdgeStyle;rounded=0;orthogonalLoop=1;jettySize=auto;html=1;exitX=0;exitY=0.5;exitDx=0;exitDy=0;entryX=1.116;entryY=0.57;entryDx=0;entryDy=0;entryPerimeter=0;endArrow=oval;endFill=0;" parent="1" source="esEqVlL6re1M1a8fyDZB-11" target="psAY5yPwDMX2NuFO3N5F-8" edge="1">
          <mxGeometry relative="1" as="geometry" />
        </mxCell>
        <mxCell id="psAY5yPwDMX2NuFO3N5F-12" value="&lt;font style=&quot;font-size: 9px;&quot;&gt;Descrizione&lt;/font&gt;" style="text;html=1;align=center;verticalAlign=middle;whiteSpace=wrap;rounded=0;" parent="1" vertex="1">
          <mxGeometry x="379" y="175" width="35" height="15" as="geometry" />
        </mxCell>
        <mxCell id="psAY5yPwDMX2NuFO3N5F-13" value="&lt;font style=&quot;font-size: 9px;&quot;&gt;Nome&lt;/font&gt;" style="text;html=1;align=center;verticalAlign=middle;whiteSpace=wrap;rounded=0;" parent="1" vertex="1">
          <mxGeometry x="295" y="160" width="35" height="15" as="geometry" />
        </mxCell>
        <mxCell id="psAY5yPwDMX2NuFO3N5F-18" value="" style="curved=1;endArrow=oval;html=1;rounded=0;endFill=1;" parent="1" edge="1">
          <mxGeometry width="50" height="50" relative="1" as="geometry">
            <mxPoint x="330" y="187.5" as="sourcePoint" />
            <mxPoint x="270" y="237.5" as="targetPoint" />
            <Array as="points">
              <mxPoint x="260" y="187.5" />
              <mxPoint x="270" y="237.5" />
            </Array>
          </mxGeometry>
        </mxCell>
        <mxCell id="psAY5yPwDMX2NuFO3N5F-20" value="&lt;font style=&quot;font-size: 9px;&quot;&gt;Nome&lt;/font&gt;" style="text;html=1;align=center;verticalAlign=middle;whiteSpace=wrap;rounded=0;" parent="1" vertex="1">
          <mxGeometry x="355" y="420" width="40" height="17" as="geometry" />
        </mxCell>
        <mxCell id="psAY5yPwDMX2NuFO3N5F-21" value="&lt;font style=&quot;font-size: 9px;&quot;&gt;Provenienza&lt;/font&gt;" style="text;html=1;align=center;verticalAlign=middle;whiteSpace=wrap;rounded=0;" parent="1" vertex="1">
          <mxGeometry x="300" y="420" width="40" height="17" as="geometry" />
        </mxCell>
        <mxCell id="psAY5yPwDMX2NuFO3N5F-22" value="&lt;font style=&quot;font-size: 9px;&quot;&gt;Codice&lt;/font&gt;" style="text;html=1;align=center;verticalAlign=middle;whiteSpace=wrap;rounded=0;" parent="1" vertex="1">
          <mxGeometry x="255" y="437" width="40" height="17" as="geometry" />
        </mxCell>
        <mxCell id="psAY5yPwDMX2NuFO3N5F-23" value="&lt;font style=&quot;font-size: 9px;&quot;&gt;RaritÃ &lt;/font&gt;" style="text;html=1;align=center;verticalAlign=middle;whiteSpace=wrap;rounded=0;" parent="1" vertex="1">
          <mxGeometry x="355" y="498.5" width="40" height="17" as="geometry" />
        </mxCell>
        <mxCell id="psAY5yPwDMX2NuFO3N5F-24" value="&lt;font style=&quot;font-size: 9px;&quot;&gt;Datazione&lt;/font&gt;" style="text;html=1;align=center;verticalAlign=middle;whiteSpace=wrap;rounded=0;" parent="1" vertex="1">
          <mxGeometry x="250" y="465" width="40" height="17" as="geometry" />
        </mxCell>
        <mxCell id="psAY5yPwDMX2NuFO3N5F-25" value="&lt;font style=&quot;font-size: 9px;&quot;&gt;Significato Storico&lt;/font&gt;" style="text;html=1;align=center;verticalAlign=middle;whiteSpace=wrap;rounded=0;" parent="1" vertex="1">
          <mxGeometry x="277.5" y="500" width="55" height="17" as="geometry" />
        </mxCell>
        <mxCell id="psAY5yPwDMX2NuFO3N5F-27" style="edgeStyle=orthogonalEdgeStyle;rounded=0;orthogonalLoop=1;jettySize=auto;html=1;exitX=0.75;exitY=0;exitDx=0;exitDy=0;entryX=0.614;entryY=1.108;entryDx=0;entryDy=0;entryPerimeter=0;endArrow=oval;endFill=0;" parent="1" source="esEqVlL6re1M1a8fyDZB-14" target="psAY5yPwDMX2NuFO3N5F-20" edge="1">
          <mxGeometry relative="1" as="geometry" />
        </mxCell>
        <mxCell id="psAY5yPwDMX2NuFO3N5F-28" style="edgeStyle=orthogonalEdgeStyle;rounded=0;orthogonalLoop=1;jettySize=auto;html=1;exitX=0.25;exitY=0;exitDx=0;exitDy=0;entryX=0.842;entryY=1.009;entryDx=0;entryDy=0;entryPerimeter=0;endArrow=oval;endFill=0;" parent="1" source="esEqVlL6re1M1a8fyDZB-14" target="psAY5yPwDMX2NuFO3N5F-21" edge="1">
          <mxGeometry relative="1" as="geometry" />
        </mxCell>
        <mxCell id="psAY5yPwDMX2NuFO3N5F-31" style="edgeStyle=orthogonalEdgeStyle;rounded=0;orthogonalLoop=1;jettySize=auto;html=1;exitX=0.25;exitY=1;exitDx=0;exitDy=0;entryX=0.93;entryY=-0.155;entryDx=0;entryDy=0;entryPerimeter=0;endArrow=oval;endFill=0;" parent="1" source="esEqVlL6re1M1a8fyDZB-14" target="psAY5yPwDMX2NuFO3N5F-25" edge="1">
          <mxGeometry relative="1" as="geometry" />
        </mxCell>
        <mxCell id="psAY5yPwDMX2NuFO3N5F-32" style="edgeStyle=orthogonalEdgeStyle;rounded=0;orthogonalLoop=1;jettySize=auto;html=1;exitX=0.75;exitY=1;exitDx=0;exitDy=0;entryX=0.646;entryY=0.107;entryDx=0;entryDy=0;entryPerimeter=0;endArrow=oval;endFill=0;" parent="1" source="esEqVlL6re1M1a8fyDZB-14" target="psAY5yPwDMX2NuFO3N5F-23" edge="1">
          <mxGeometry relative="1" as="geometry" />
        </mxCell>
        <mxCell id="psAY5yPwDMX2NuFO3N5F-34" value="&lt;font style=&quot;font-size: 8px;&quot;&gt;Ora Inizio&lt;/font&gt;" style="text;html=1;align=center;verticalAlign=middle;whiteSpace=wrap;rounded=1;strokeColor=none;glass=0;" parent="1" vertex="1">
          <mxGeometry x="-50" y="20" width="50" height="15" as="geometry" />
        </mxCell>
        <mxCell id="psAY5yPwDMX2NuFO3N5F-35" value="&lt;font style=&quot;font-size: 8px;&quot;&gt;Ora Fine&lt;/font&gt;" style="text;html=1;align=center;verticalAlign=middle;whiteSpace=wrap;rounded=1;strokeColor=none;glass=0;" parent="1" vertex="1">
          <mxGeometry x="30" y="20" width="50" height="15" as="geometry" />
        </mxCell>
        <mxCell id="psAY5yPwDMX2NuFO3N5F-36" value="&lt;font style=&quot;font-size: 8px;&quot;&gt;Data&lt;/font&gt;" style="text;html=1;align=center;verticalAlign=middle;whiteSpace=wrap;rounded=1;strokeColor=none;glass=0;" parent="1" vertex="1">
          <mxGeometry x="-50" y="89.99999999999999" width="50" height="15" as="geometry" />
        </mxCell>
        <mxCell id="psAY5yPwDMX2NuFO3N5F-38" style="edgeStyle=orthogonalEdgeStyle;rounded=0;orthogonalLoop=1;jettySize=auto;html=1;exitX=0;exitY=0;exitDx=0;exitDy=0;entryX=0.885;entryY=1.093;entryDx=0;entryDy=0;entryPerimeter=0;endArrow=oval;endFill=0;" parent="1" source="esEqVlL6re1M1a8fyDZB-26" target="psAY5yPwDMX2NuFO3N5F-34" edge="1">
          <mxGeometry relative="1" as="geometry" />
        </mxCell>
        <mxCell id="psAY5yPwDMX2NuFO3N5F-44" value="&lt;font style=&quot;font-size: 8px;&quot;&gt;Durata&lt;/font&gt;" style="text;html=1;align=center;verticalAlign=middle;whiteSpace=wrap;rounded=1;strokeColor=none;" parent="1" vertex="1">
          <mxGeometry x="-60" y="300" width="40" height="23" as="geometry" />
        </mxCell>
        <mxCell id="psAY5yPwDMX2NuFO3N5F-45" value="&lt;font style=&quot;font-size: 8px;&quot;&gt;Argomento&lt;/font&gt;" style="text;html=1;align=center;verticalAlign=middle;whiteSpace=wrap;rounded=1;strokeColor=none;" parent="1" vertex="1">
          <mxGeometry x="-60" y="233" width="40" height="23" as="geometry" />
        </mxCell>
        <mxCell id="psAY5yPwDMX2NuFO3N5F-48" value="&lt;font style=&quot;font-size: 9px;&quot;&gt;Descrizione&lt;/font&gt;" style="text;html=1;align=center;verticalAlign=middle;whiteSpace=wrap;rounded=0;" parent="1" vertex="1">
          <mxGeometry x="520" y="431.5" width="40" height="17" as="geometry" />
        </mxCell>
        <mxCell id="sCdLPjGgIY4ofrzn0zne-25" style="edgeStyle=orthogonalEdgeStyle;rounded=0;orthogonalLoop=1;jettySize=auto;html=1;exitX=0.25;exitY=0;exitDx=0;exitDy=0;endArrow=oval;endFill=0;" parent="1" source="sCdLPjGgIY4ofrzn0zne-1" edge="1">
          <mxGeometry relative="1" as="geometry">
            <mxPoint x="436.3333333333335" y="60" as="targetPoint" />
          </mxGeometry>
        </mxCell>
        <mxCell id="sCdLPjGgIY4ofrzn0zne-29" style="edgeStyle=orthogonalEdgeStyle;rounded=0;orthogonalLoop=1;jettySize=auto;html=1;exitX=0.75;exitY=0;exitDx=0;exitDy=0;entryX=0.5;entryY=1;entryDx=0;entryDy=0;endArrow=oval;endFill=0;" parent="1" source="sCdLPjGgIY4ofrzn0zne-1" target="sCdLPjGgIY4ofrzn0zne-27" edge="1">
          <mxGeometry relative="1" as="geometry" />
        </mxCell>
        <mxCell id="sCdLPjGgIY4ofrzn0zne-30" style="edgeStyle=orthogonalEdgeStyle;rounded=0;orthogonalLoop=1;jettySize=auto;html=1;exitX=1;exitY=0.5;exitDx=0;exitDy=0;entryX=0.25;entryY=1;entryDx=0;entryDy=0;endArrow=oval;endFill=0;" parent="1" source="sCdLPjGgIY4ofrzn0zne-1" target="sCdLPjGgIY4ofrzn0zne-28" edge="1">
          <mxGeometry relative="1" as="geometry" />
        </mxCell>
        <mxCell id="sCdLPjGgIY4ofrzn0zne-1" value="Esperienza" style="whiteSpace=wrap;html=1;align=center;" parent="1" vertex="1">
          <mxGeometry x="414" y="76.25" width="90" height="28.75" as="geometry" />
        </mxCell>
        <mxCell id="sCdLPjGgIY4ofrzn0zne-4" value="" style="edgeStyle=elbowEdgeStyle;elbow=vertical;endArrow=block;html=1;curved=0;rounded=0;endSize=8;startSize=8;endFill=0;entryX=0.5;entryY=1;entryDx=0;entryDy=0;" parent="1" target="sCdLPjGgIY4ofrzn0zne-1" edge="1">
          <mxGeometry width="50" height="50" relative="1" as="geometry">
            <mxPoint x="405" y="150" as="sourcePoint" />
            <mxPoint x="470" y="117.19000000000034" as="targetPoint" />
            <Array as="points">
              <mxPoint x="430" y="120" />
            </Array>
          </mxGeometry>
        </mxCell>
        <mxCell id="sCdLPjGgIY4ofrzn0zne-5" value="Evento Storico" style="whiteSpace=wrap;html=1;align=center;" parent="1" vertex="1">
          <mxGeometry x="355" y="131.25" width="90" height="28.75" as="geometry" />
        </mxCell>
        <mxCell id="sCdLPjGgIY4ofrzn0zne-8" style="edgeStyle=orthogonalEdgeStyle;rounded=0;orthogonalLoop=1;jettySize=auto;html=1;exitX=0.25;exitY=0;exitDx=0;exitDy=0;endArrow=none;endFill=0;" parent="1" source="sCdLPjGgIY4ofrzn0zne-7" edge="1">
          <mxGeometry relative="1" as="geometry">
            <mxPoint x="460" y="120" as="targetPoint" />
            <Array as="points">
              <mxPoint x="500" y="131" />
              <mxPoint x="500" y="120" />
              <mxPoint x="460" y="120" />
            </Array>
          </mxGeometry>
        </mxCell>
        <mxCell id="-KCrA8Snv7a03eBKMKKP-4" style="edgeStyle=orthogonalEdgeStyle;rounded=0;orthogonalLoop=1;jettySize=auto;html=1;exitX=0.75;exitY=0;exitDx=0;exitDy=0;entryX=0.5;entryY=1;entryDx=0;entryDy=0;endArrow=oval;endFill=0;" parent="1" source="sCdLPjGgIY4ofrzn0zne-7" target="-KCrA8Snv7a03eBKMKKP-1" edge="1">
          <mxGeometry relative="1" as="geometry" />
        </mxCell>
        <mxCell id="sCdLPjGgIY4ofrzn0zne-7" value="Rivolta" style="whiteSpace=wrap;html=1;align=center;" parent="1" vertex="1">
          <mxGeometry x="465" y="130.62" width="90" height="28.75" as="geometry" />
        </mxCell>
        <mxCell id="sCdLPjGgIY4ofrzn0zne-11" style="edgeStyle=orthogonalEdgeStyle;rounded=0;orthogonalLoop=1;jettySize=auto;html=1;exitX=0.5;exitY=0;exitDx=0;exitDy=0;entryX=0;entryY=0.5;entryDx=0;entryDy=0;endArrow=none;endFill=0;" parent="1" source="sCdLPjGgIY4ofrzn0zne-9" target="sCdLPjGgIY4ofrzn0zne-1" edge="1">
          <mxGeometry relative="1" as="geometry" />
        </mxCell>
        <mxCell id="sCdLPjGgIY4ofrzn0zne-9" value="Offerto" style="shape=rhombus;perimeter=rhombusPerimeter;whiteSpace=wrap;html=1;align=center;" parent="1" vertex="1">
          <mxGeometry x="235" y="130" width="70" height="45" as="geometry" />
        </mxCell>
        <mxCell id="sCdLPjGgIY4ofrzn0zne-13" value="Geroglifici" style="whiteSpace=wrap;html=1;align=center;" parent="1" vertex="1">
          <mxGeometry x="390" y="271" width="80" height="20" as="geometry" />
        </mxCell>
        <mxCell id="sCdLPjGgIY4ofrzn0zne-14" value="Mosaici" style="whiteSpace=wrap;html=1;align=center;" parent="1" vertex="1">
          <mxGeometry x="475" y="270" width="80" height="20" as="geometry" />
        </mxCell>
        <mxCell id="sCdLPjGgIY4ofrzn0zne-16" value="Storie Antiche" style="whiteSpace=wrap;html=1;align=center;" parent="1" vertex="1">
          <mxGeometry x="560" y="270" width="80" height="20" as="geometry" />
        </mxCell>
        <mxCell id="sCdLPjGgIY4ofrzn0zne-18" value="" style="shape=flexArrow;endArrow=classic;html=1;rounded=0;" parent="1" edge="1">
          <mxGeometry width="50" height="50" relative="1" as="geometry">
            <mxPoint x="379" y="270" as="sourcePoint" />
            <mxPoint x="379" y="240" as="targetPoint" />
          </mxGeometry>
        </mxCell>
        <mxCell id="sCdLPjGgIY4ofrzn0zne-19" value="" style="edgeStyle=orthogonalEdgeStyle;rounded=0;orthogonalLoop=1;jettySize=auto;html=1;exitX=0.5;exitY=1;exitDx=0;exitDy=0;entryX=0.5;entryY=0;entryDx=0;entryDy=0;endArrow=none;endFill=0;" parent="1" source="esEqVlL6re1M1a8fyDZB-13" target="sCdLPjGgIY4ofrzn0zne-15" edge="1">
          <mxGeometry relative="1" as="geometry">
            <mxPoint x="355" y="240" as="sourcePoint" />
            <mxPoint x="355" y="340" as="targetPoint" />
          </mxGeometry>
        </mxCell>
        <mxCell id="sCdLPjGgIY4ofrzn0zne-15" value="Anfore" style="whiteSpace=wrap;html=1;align=center;" parent="1" vertex="1">
          <mxGeometry x="290" y="271" width="80" height="20" as="geometry" />
        </mxCell>
        <mxCell id="sCdLPjGgIY4ofrzn0zne-21" value="" style="endArrow=none;html=1;rounded=0;entryX=0.5;entryY=0;entryDx=0;entryDy=0;" parent="1" target="sCdLPjGgIY4ofrzn0zne-16" edge="1">
          <mxGeometry width="50" height="50" relative="1" as="geometry">
            <mxPoint x="345" y="271.0027586206895" as="sourcePoint" />
            <mxPoint x="595" y="261.52" as="targetPoint" />
          </mxGeometry>
        </mxCell>
        <mxCell id="sCdLPjGgIY4ofrzn0zne-24" style="edgeStyle=orthogonalEdgeStyle;rounded=0;orthogonalLoop=1;jettySize=auto;html=1;exitX=1;exitY=0.5;exitDx=0;exitDy=0;entryX=0.25;entryY=1;entryDx=0;entryDy=0;endArrow=none;endFill=0;" parent="1" source="sCdLPjGgIY4ofrzn0zne-22" target="esEqVlL6re1M1a8fyDZB-8" edge="1">
          <mxGeometry relative="1" as="geometry">
            <Array as="points">
              <mxPoint x="-15" y="188" />
              <mxPoint x="78" y="188" />
            </Array>
          </mxGeometry>
        </mxCell>
        <mxCell id="sCdLPjGgIY4ofrzn0zne-22" value="Esplorazione" style="shape=rhombus;perimeter=rhombusPerimeter;whiteSpace=wrap;html=1;align=center;" parent="1" vertex="1">
          <mxGeometry x="-110" y="160" width="95" height="45" as="geometry" />
        </mxCell>
        <mxCell id="sCdLPjGgIY4ofrzn0zne-26" value="&lt;font style=&quot;font-size: 8px;&quot;&gt;Nome&lt;/font&gt;" style="text;html=1;align=center;verticalAlign=middle;whiteSpace=wrap;rounded=1;strokeColor=none;" parent="1" vertex="1">
          <mxGeometry x="414" y="30" width="40" height="20" as="geometry" />
        </mxCell>
        <mxCell id="sCdLPjGgIY4ofrzn0zne-27" value="&lt;font style=&quot;font-size: 8px;&quot;&gt;Descrizione&lt;/font&gt;" style="text;html=1;align=center;verticalAlign=middle;whiteSpace=wrap;rounded=1;strokeColor=none;" parent="1" vertex="1">
          <mxGeometry x="464" y="34.38" width="40" height="20" as="geometry" />
        </mxCell>
        <mxCell id="sCdLPjGgIY4ofrzn0zne-28" value="&lt;font style=&quot;font-size: 8px;&quot;&gt;Durata&lt;/font&gt;" style="text;html=1;align=center;verticalAlign=middle;whiteSpace=wrap;rounded=1;strokeColor=none;" parent="1" vertex="1">
          <mxGeometry x="530" y="63" width="40" height="20" as="geometry" />
        </mxCell>
        <mxCell id="sCdLPjGgIY4ofrzn0zne-31" value="&lt;font style=&quot;font-size: 8px;&quot;&gt;(1,N)&lt;/font&gt;" style="text;html=1;align=center;verticalAlign=middle;whiteSpace=wrap;rounded=1;strokeColor=none;glass=0;" parent="1" vertex="1">
          <mxGeometry x="-72.5" y="47.51" width="50" height="15" as="geometry" />
        </mxCell>
        <mxCell id="sCdLPjGgIY4ofrzn0zne-32" value="&lt;font style=&quot;font-size: 8px;&quot;&gt;(0,N)&lt;/font&gt;" style="text;html=1;align=center;verticalAlign=middle;whiteSpace=wrap;rounded=1;strokeColor=none;glass=0;" parent="1" vertex="1">
          <mxGeometry x="-130" y="155.63" width="50" height="15" as="geometry" />
        </mxCell>
        <mxCell id="sCdLPjGgIY4ofrzn0zne-33" value="&lt;font style=&quot;font-size: 8px;&quot;&gt;(0,N)&lt;/font&gt;" style="text;html=1;align=center;verticalAlign=middle;whiteSpace=wrap;rounded=1;strokeColor=none;glass=0;" parent="1" vertex="1">
          <mxGeometry x="2.5" width="50" height="15" as="geometry" />
        </mxCell>
        <mxCell id="sCdLPjGgIY4ofrzn0zne-34" value="&lt;font style=&quot;font-size: 8px;&quot;&gt;(0,N)&lt;/font&gt;" style="text;html=1;align=center;verticalAlign=middle;whiteSpace=wrap;rounded=1;strokeColor=none;glass=0;" parent="1" vertex="1">
          <mxGeometry x="-47.5" y="107.5" width="50" height="15" as="geometry" />
        </mxCell>
        <mxCell id="sCdLPjGgIY4ofrzn0zne-35" value="&lt;font style=&quot;font-size: 8px;&quot;&gt;(1,N)&lt;/font&gt;" style="text;html=1;align=center;verticalAlign=middle;whiteSpace=wrap;rounded=1;strokeColor=none;glass=0;" parent="1" vertex="1">
          <mxGeometry x="-110" y="90" width="50" height="15" as="geometry" />
        </mxCell>
        <mxCell id="sCdLPjGgIY4ofrzn0zne-36" value="&lt;font style=&quot;font-size: 8px;&quot;&gt;(0,N)&lt;/font&gt;" style="text;html=1;align=center;verticalAlign=middle;whiteSpace=wrap;rounded=1;strokeColor=none;glass=0;" parent="1" vertex="1">
          <mxGeometry x="-37.5" y="160" width="50" height="15" as="geometry" />
        </mxCell>
        <mxCell id="sCdLPjGgIY4ofrzn0zne-37" value="&lt;font style=&quot;font-size: 8px;&quot;&gt;(1,1)&lt;/font&gt;" style="text;html=1;align=center;verticalAlign=middle;whiteSpace=wrap;rounded=1;strokeColor=none;glass=0;" parent="1" vertex="1">
          <mxGeometry x="-180" y="135" width="50" height="15" as="geometry" />
        </mxCell>
        <mxCell id="sCdLPjGgIY4ofrzn0zne-38" value="&lt;font style=&quot;font-size: 8px;&quot;&gt;(1,1)&lt;/font&gt;" style="text;html=1;align=center;verticalAlign=middle;whiteSpace=wrap;rounded=1;strokeColor=none;glass=0;" parent="1" vertex="1">
          <mxGeometry x="-240" y="185" width="50" height="15" as="geometry" />
        </mxCell>
        <mxCell id="sCdLPjGgIY4ofrzn0zne-39" value="&lt;font style=&quot;font-size: 8px;&quot;&gt;(0,N)&lt;/font&gt;" style="text;html=1;align=center;verticalAlign=middle;whiteSpace=wrap;rounded=1;strokeColor=none;glass=0;" parent="1" vertex="1">
          <mxGeometry x="30" y="498.5" width="50" height="15" as="geometry" />
        </mxCell>
        <mxCell id="sCdLPjGgIY4ofrzn0zne-40" value="&lt;font style=&quot;font-size: 8px;&quot;&gt;(0,N)&lt;/font&gt;" style="text;html=1;align=center;verticalAlign=middle;whiteSpace=wrap;rounded=1;strokeColor=none;glass=0;" parent="1" vertex="1">
          <mxGeometry x="30" y="439" width="50" height="15" as="geometry" />
        </mxCell>
        <mxCell id="sCdLPjGgIY4ofrzn0zne-41" value="&lt;font style=&quot;font-size: 8px;&quot;&gt;(0,N)&lt;/font&gt;" style="text;html=1;align=center;verticalAlign=middle;whiteSpace=wrap;rounded=1;strokeColor=none;glass=0;" parent="1" vertex="1">
          <mxGeometry x="167.5" y="487.5" width="50" height="15" as="geometry" />
        </mxCell>
        <mxCell id="sCdLPjGgIY4ofrzn0zne-42" value="&lt;font style=&quot;font-size: 8px;&quot;&gt;(0,N)&lt;/font&gt;" style="text;html=1;align=center;verticalAlign=middle;whiteSpace=wrap;rounded=1;strokeColor=none;glass=0;" parent="1" vertex="1">
          <mxGeometry x="165" y="550" width="50" height="15" as="geometry" />
        </mxCell>
        <mxCell id="sCdLPjGgIY4ofrzn0zne-43" value="&lt;font style=&quot;font-size: 8px;&quot;&gt;(0,N)&lt;/font&gt;" style="text;html=1;align=center;verticalAlign=middle;whiteSpace=wrap;rounded=1;strokeColor=none;glass=0;" parent="1" vertex="1">
          <mxGeometry x="355" y="577" width="50" height="15" as="geometry" />
        </mxCell>
        <mxCell id="sCdLPjGgIY4ofrzn0zne-44" value="&lt;font style=&quot;font-size: 8px;&quot;&gt;(0,N)&lt;/font&gt;" style="text;html=1;align=center;verticalAlign=middle;whiteSpace=wrap;rounded=1;strokeColor=none;glass=0;" parent="1" vertex="1">
          <mxGeometry x="355" y="520" width="50" height="15" as="geometry" />
        </mxCell>
        <mxCell id="sCdLPjGgIY4ofrzn0zne-45" value="&lt;font style=&quot;font-size: 8px;&quot;&gt;(0,N)&lt;/font&gt;" style="text;html=1;align=center;verticalAlign=middle;whiteSpace=wrap;rounded=1;strokeColor=none;glass=0;" parent="1" vertex="1">
          <mxGeometry x="454" y="435" width="50" height="15" as="geometry" />
        </mxCell>
        <mxCell id="sCdLPjGgIY4ofrzn0zne-46" value="&lt;font style=&quot;font-size: 8px;&quot;&gt;(0,N)&lt;/font&gt;" style="text;html=1;align=center;verticalAlign=middle;whiteSpace=wrap;rounded=1;strokeColor=none;glass=0;" parent="1" vertex="1">
          <mxGeometry x="510" y="490" width="50" height="15" as="geometry" />
        </mxCell>
        <mxCell id="sCdLPjGgIY4ofrzn0zne-47" value="&lt;font style=&quot;font-size: 8px;&quot;&gt;(1,1)&lt;/font&gt;" style="text;html=1;align=center;verticalAlign=middle;whiteSpace=wrap;rounded=1;strokeColor=none;glass=0;" parent="1" vertex="1">
          <mxGeometry x="87.5" y="270" width="50" height="15" as="geometry" />
        </mxCell>
        <mxCell id="sCdLPjGgIY4ofrzn0zne-48" value="&lt;span style=&quot;font-size: 8px;&quot;&gt;(1,N)&lt;/span&gt;" style="text;html=1;align=center;verticalAlign=middle;whiteSpace=wrap;rounded=1;strokeColor=none;glass=0;" parent="1" vertex="1">
          <mxGeometry x="50" y="207.5" width="50" height="15" as="geometry" />
        </mxCell>
        <mxCell id="sCdLPjGgIY4ofrzn0zne-49" value="&lt;span style=&quot;font-size: 8px;&quot;&gt;(0,N)&lt;/span&gt;" style="text;html=1;align=center;verticalAlign=middle;whiteSpace=wrap;rounded=1;strokeColor=none;glass=0;" parent="1" vertex="1">
          <mxGeometry x="200" y="170" width="50" height="15" as="geometry" />
        </mxCell>
        <mxCell id="sCdLPjGgIY4ofrzn0zne-50" value="&lt;span style=&quot;font-size: 8px;&quot;&gt;(1,1)&lt;/span&gt;" style="text;html=1;align=center;verticalAlign=middle;whiteSpace=wrap;rounded=1;strokeColor=none;glass=0;" parent="1" vertex="1">
          <mxGeometry x="277.5" y="116.25" width="50" height="15" as="geometry" />
        </mxCell>
        <mxCell id="sCdLPjGgIY4ofrzn0zne-51" value="&lt;span style=&quot;font-size: 8px;&quot;&gt;(1,N)&lt;/span&gt;" style="text;html=1;align=center;verticalAlign=middle;whiteSpace=wrap;rounded=1;strokeColor=none;glass=0;" parent="1" vertex="1">
          <mxGeometry x="370" y="335" width="50" height="15" as="geometry" />
        </mxCell>
        <mxCell id="sCdLPjGgIY4ofrzn0zne-52" value="&lt;span style=&quot;font-size: 8px;&quot;&gt;(1,1)&lt;/span&gt;" style="text;html=1;align=center;verticalAlign=middle;whiteSpace=wrap;rounded=1;strokeColor=none;glass=0;" parent="1" vertex="1">
          <mxGeometry x="364" y="400" width="50" height="15" as="geometry" />
        </mxCell>
        <mxCell id="sCdLPjGgIY4ofrzn0zne-53" value="&lt;span style=&quot;font-size: 8px;&quot;&gt;(0,N)&lt;/span&gt;" style="text;html=1;align=center;verticalAlign=middle;whiteSpace=wrap;rounded=1;strokeColor=none;glass=0;" parent="1" vertex="1">
          <mxGeometry x="-122.5" y="290" width="50" height="15" as="geometry" />
        </mxCell>
        <mxCell id="sCdLPjGgIY4ofrzn0zne-54" value="&lt;span style=&quot;font-size: 8px;&quot;&gt;(0,N)&lt;/span&gt;" style="text;html=1;align=center;verticalAlign=middle;whiteSpace=wrap;rounded=1;strokeColor=none;glass=0;" parent="1" vertex="1">
          <mxGeometry x="-122.5" y="237" width="50" height="15" as="geometry" />
        </mxCell>
        <mxCell id="-KCrA8Snv7a03eBKMKKP-1" value="&lt;font style=&quot;font-size: 8px;&quot;&gt;Nome&lt;/font&gt;" style="text;html=1;align=center;verticalAlign=middle;whiteSpace=wrap;rounded=1;strokeColor=none;" parent="1" vertex="1">
          <mxGeometry x="515" y="105" width="40" height="20" as="geometry" />
        </mxCell>
        <mxCell id="-KCrA8Snv7a03eBKMKKP-2" value="&lt;font style=&quot;font-size: 8px;&quot;&gt;Luogo&lt;/font&gt;" style="text;html=1;align=center;verticalAlign=middle;whiteSpace=wrap;rounded=1;strokeColor=none;" parent="1" vertex="1">
          <mxGeometry x="580" y="135.63" width="40" height="20" as="geometry" />
        </mxCell>
        <mxCell id="-KCrA8Snv7a03eBKMKKP-3" value="&lt;font style=&quot;font-size: 8px;&quot;&gt;Periodo&lt;/font&gt;" style="text;html=1;align=center;verticalAlign=middle;whiteSpace=wrap;rounded=1;strokeColor=none;" parent="1" vertex="1">
          <mxGeometry x="530" y="167.5" width="40" height="20" as="geometry" />
        </mxCell>
        <mxCell id="-KCrA8Snv7a03eBKMKKP-5" style="edgeStyle=orthogonalEdgeStyle;rounded=0;orthogonalLoop=1;jettySize=auto;html=1;exitX=1;exitY=0.5;exitDx=0;exitDy=0;entryX=-0.083;entryY=0.515;entryDx=0;entryDy=0;entryPerimeter=0;endArrow=oval;endFill=0;" parent="1" source="sCdLPjGgIY4ofrzn0zne-7" target="-KCrA8Snv7a03eBKMKKP-2" edge="1">
          <mxGeometry relative="1" as="geometry" />
        </mxCell>
        <mxCell id="-KCrA8Snv7a03eBKMKKP-6" style="edgeStyle=orthogonalEdgeStyle;rounded=0;orthogonalLoop=1;jettySize=auto;html=1;exitX=0.75;exitY=1;exitDx=0;exitDy=0;entryX=0.089;entryY=0.048;entryDx=0;entryDy=0;entryPerimeter=0;endArrow=oval;endFill=0;" parent="1" source="sCdLPjGgIY4ofrzn0zne-7" target="-KCrA8Snv7a03eBKMKKP-3" edge="1">
          <mxGeometry relative="1" as="geometry" />
        </mxCell>
        <mxCell id="-KCrA8Snv7a03eBKMKKP-7" value="" style="curved=1;endArrow=oval;html=1;rounded=0;endFill=1;" parent="1" edge="1">
          <mxGeometry width="50" height="50" relative="1" as="geometry">
            <mxPoint x="445" y="66.25" as="sourcePoint" />
            <mxPoint x="385" y="116.25" as="targetPoint" />
            <Array as="points">
              <mxPoint x="375" y="66.25" />
              <mxPoint x="385" y="116.25" />
            </Array>
          </mxGeometry>
        </mxCell>
        <mxCell id="-KCrA8Snv7a03eBKMKKP-8" value="&lt;font style=&quot;font-size: 8px;&quot;&gt;(1,N)&lt;/font&gt;" style="text;html=1;align=center;verticalAlign=middle;whiteSpace=wrap;rounded=1;strokeColor=none;glass=0;" parent="1" vertex="1">
          <mxGeometry x="125" y="350" width="50" height="15" as="geometry" />
        </mxCell>
        <mxCell id="-KCrA8Snv7a03eBKMKKP-9" style="edgeStyle=orthogonalEdgeStyle;rounded=0;orthogonalLoop=1;jettySize=auto;html=1;exitX=0.5;exitY=1;exitDx=0;exitDy=0;" parent="1" source="sCdLPjGgIY4ofrzn0zne-49" target="sCdLPjGgIY4ofrzn0zne-49" edge="1">
          <mxGeometry relative="1" as="geometry" />
        </mxCell>
        <mxCell id="gv4DbaSQQRbEuML4uvOJ-1" value="Guanti Haptic" style="whiteSpace=wrap;html=1;align=center;" parent="1" vertex="1">
          <mxGeometry x="205" y="27.51" width="90" height="20" as="geometry" />
        </mxCell>
        <mxCell id="O113cSQGS3Kzy_eXXIUR-2" value="&lt;font style=&quot;font-size: 8px;&quot;&gt;(1,1)&lt;/font&gt;" style="text;html=1;align=center;verticalAlign=middle;whiteSpace=wrap;rounded=1;strokeColor=none;glass=0;" vertex="1" parent="1">
          <mxGeometry x="217.5" y="207.5" width="50" height="15" as="geometry" />
        </mxCell>
        <mxCell id="O113cSQGS3Kzy_eXXIUR-6" style="edgeStyle=orthogonalEdgeStyle;rounded=0;orthogonalLoop=1;jettySize=auto;html=1;exitX=1;exitY=0.5;exitDx=0;exitDy=0;entryX=0;entryY=0.5;entryDx=0;entryDy=0;endArrow=none;endFill=0;" edge="1" parent="1" source="O113cSQGS3Kzy_eXXIUR-4" target="esEqVlL6re1M1a8fyDZB-13">
          <mxGeometry relative="1" as="geometry">
            <Array as="points">
              <mxPoint x="255" y="220" />
            </Array>
          </mxGeometry>
        </mxCell>
        <mxCell id="O113cSQGS3Kzy_eXXIUR-4" value="Pertinenza" style="shape=rhombus;perimeter=rhombusPerimeter;whiteSpace=wrap;html=1;align=center;" vertex="1" parent="1">
          <mxGeometry x="160" y="215" width="95" height="55" as="geometry" />
        </mxCell>
        <mxCell id="O113cSQGS3Kzy_eXXIUR-7" value="&lt;span style=&quot;font-size: 8px;&quot;&gt;(1,N)&lt;/span&gt;" style="text;html=1;align=center;verticalAlign=middle;whiteSpace=wrap;rounded=1;strokeColor=none;glass=0;" vertex="1" parent="1">
          <mxGeometry x="150" y="214" width="50" height="15" as="geometry" />
        </mxCell>
        <mxCell id="O113cSQGS3Kzy_eXXIUR-9" value="" style="shape=flexArrow;endArrow=classic;html=1;rounded=0;fillColor=#000000;" edge="1" parent="1">
          <mxGeometry width="50" height="50" relative="1" as="geometry">
            <mxPoint x="95" y="400" as="sourcePoint" />
            <mxPoint x="94.68" y="357.5" as="targetPoint" />
          </mxGeometry>
        </mxCell>
        <mxCell id="O113cSQGS3Kzy_eXXIUR-14" value="" style="endArrow=none;html=1;rounded=0;" edge="1" parent="1" target="esEqVlL6re1M1a8fyDZB-12">
          <mxGeometry width="50" height="50" relative="1" as="geometry">
            <mxPoint x="25" y="411.5" as="sourcePoint" />
            <mxPoint x="165" y="410" as="targetPoint" />
            <Array as="points">
              <mxPoint x="25" y="400" />
              <mxPoint x="95" y="400" />
              <mxPoint x="165" y="400" />
            </Array>
          </mxGeometry>
        </mxCell>
        <mxCell id="O113cSQGS3Kzy_eXXIUR-15" value="" style="shape=flexArrow;endArrow=classic;html=1;rounded=0;fillColor=none;" edge="1" parent="1">
          <mxGeometry width="50" height="50" relative="1" as="geometry">
            <mxPoint x="185" y="15" as="sourcePoint" />
            <mxPoint x="184.68" y="-27.5" as="targetPoint" />
          </mxGeometry>
        </mxCell>
        <mxCell id="O113cSQGS3Kzy_eXXIUR-16" value="" style="endArrow=none;html=1;rounded=0;exitX=0.452;exitY=0.031;exitDx=0;exitDy=0;exitPerimeter=0;" edge="1" parent="1" source="esEqVlL6re1M1a8fyDZB-6">
          <mxGeometry width="50" height="50" relative="1" as="geometry">
            <mxPoint x="115" y="26.5" as="sourcePoint" />
            <mxPoint x="255" y="27" as="targetPoint" />
            <Array as="points">
              <mxPoint x="115" y="15" />
              <mxPoint x="185" y="15" />
              <mxPoint x="255" y="15" />
            </Array>
          </mxGeometry>
        </mxCell>
      </root>
    </mxGraphModel>
  </diagram>
</mxfile>
